<svg width="303" height="50" viewBox="0 0 303 50" fill="none" xmlns="http://www.w3.org/2000/svg">
<path d="M147.145 14.1541C146.429 14.1541 145.804 13.9901 145.271 13.6619C144.737 13.3338 144.323 12.8748 144.028 12.2848C143.733 11.6948 143.585 11.0054 143.585 10.2166C143.585 9.42448 143.733 8.73177 144.028 8.13849C144.323 7.54522 144.737 7.08452 145.271 6.75639C145.804 6.42827 146.429 6.2642 147.145 6.2642C147.861 6.2642 148.486 6.42827 149.019 6.75639C149.553 7.08452 149.967 7.54522 150.262 8.13849C150.557 8.73177 150.705 9.42448 150.705 10.2166C150.705 11.0054 150.557 11.6948 150.262 12.2848C149.967 12.8748 149.553 13.3338 149.019 13.6619C148.486 13.9901 147.861 14.1541 147.145 14.1541ZM147.15 12.9062C147.614 12.9062 147.998 12.7836 148.303 12.5384C148.608 12.2931 148.834 11.9666 148.979 11.5589C149.129 11.1513 149.203 10.7022 149.203 10.2116C149.203 9.72443 149.129 9.27699 148.979 8.86932C148.834 8.45833 148.608 8.12855 148.303 7.87997C147.998 7.63139 147.614 7.5071 147.15 7.5071C146.683 7.5071 146.295 7.63139 145.987 7.87997C145.682 8.12855 145.455 8.45833 145.305 8.86932C145.16 9.27699 145.087 9.72443 145.087 10.2116C145.087 10.7022 145.16 11.1513 145.305 11.5589C145.455 11.9666 145.682 12.2931 145.987 12.5384C146.295 12.7836 146.683 12.9062 147.15 12.9062ZM152.031 14V6.36364H153.467V7.5767H153.547C153.686 7.16572 153.931 6.84257 154.283 6.60724C154.637 6.36861 155.038 6.24929 155.486 6.24929C155.579 6.24929 155.688 6.2526 155.814 6.25923C155.943 6.26586 156.044 6.27415 156.117 6.28409V7.70597C156.058 7.68939 155.951 7.67116 155.799 7.65128C155.647 7.62808 155.494 7.61648 155.342 7.61648C154.99 7.61648 154.677 7.69105 154.402 7.8402C154.13 7.98603 153.915 8.18987 153.756 8.4517C153.597 8.71023 153.517 9.00521 153.517 9.33665V14H152.031Z" fill="black"/>
<line y1="10.5" x2="112" y2="10.5" stroke="black"/>
<line x1="191" y1="10.5" x2="303" y2="10.5" stroke="black"/>
</svg>
