<svg xmlns="http://www.w3.org/2000/svg" width="303" height="50" fill="none">
  <path fill="#000" d="M147.145 14.154c-.716 0-1.341-.164-1.874-.492a3.316 3.316 0 0 1-1.243-1.377c-.295-.59-.443-1.28-.443-2.068 0-.793.148-1.485.443-2.079a3.31 3.31 0 0 1 1.243-1.382c.533-.328 1.158-.492 1.874-.492.716 0 1.341.164 1.874.492a3.31 3.31 0 0 1 1.243 1.382c.295.594.443 1.286.443 2.079 0 .788-.148 1.478-.443 2.068a3.316 3.316 0 0 1-1.243 1.377c-.533.328-1.158.492-1.874.492Zm.005-1.248c.464 0 .848-.122 1.153-.368.305-.245.531-.571.676-.98.15-.407.224-.856.224-1.346a3.86 3.86 0 0 0-.224-1.343 2.18 2.18 0 0 0-.676-.989c-.305-.249-.689-.373-1.153-.373-.467 0-.855.124-1.163.373a2.23 2.23 0 0 0-.682.99 3.98 3.98 0 0 0-.218 1.342c0 .49.073.94.218 1.347.15.408.377.734.682.98.308.245.696.367 1.163.367ZM152.031 14V6.364h1.436v1.213h.08c.139-.411.384-.734.736-.97a2.103 2.103 0 0 1 1.203-.358 6.343 6.343 0 0 1 .631.035v1.422a2.65 2.65 0 0 0-.318-.055 3.031 3.031 0 0 0-.457-.035 1.94 1.94 0 0 0-.94.224 1.66 1.66 0 0 0-.885 1.497V14h-1.486Z"/>
  <path stroke="#000" d="M0 10.5h112m79 0h112"/>
</svg>
